<svg xmlns="http://www.w3.org/2000/svg" xmlns:xlink="http://www.w3.org/1999/xlink" viewBox="0 0 1920 1080"><defs><style>.cls-1,.cls-10,.cls-11,.cls-5,.cls-6,.cls-7,.cls-8,.cls-9{fill:none;}.cls-2,.cls-4{fill:#002bff;}.cls-3{fill:url(#Unnamed_Pattern);}.cls-4{stroke:#000;}.cls-10,.cls-11,.cls-4,.cls-5,.cls-6,.cls-7,.cls-8,.cls-9{stroke-miterlimit:10;}.cls-10,.cls-11,.cls-5,.cls-6,.cls-7,.cls-8,.cls-9{stroke:#002bff;}.cls-5{stroke-width:7px;}.cls-10,.cls-11,.cls-6,.cls-7,.cls-8,.cls-9{stroke-width:4px;}.cls-7{opacity:0.25;}.cls-8{opacity:0.35;}.cls-9{opacity:0.45;}.cls-10{opacity:0.55;}.cls-11{opacity:0.75;}.cls-12{fill:#fff;}</style><pattern id="Unnamed_Pattern" data-name="Unnamed Pattern" width="1693.5" height="883" patternUnits="userSpaceOnUse" viewBox="0 0 1693.5 883"><rect class="cls-1" width="1693.5" height="883"/><path class="cls-2" d="M0,687.5C0,307.8,379,0,846.5,0S1693,307.8,1693,687.5"/><rect class="cls-2" x="0.5" y="674" width="1693" height="209"/></pattern></defs><title>Mesa de trabajo 1</title><g id="Capa_3" data-name="Capa 3"><path class="cls-2" d="M0,107c190.56,0,345,126,345,281.48S190.53,670,0,670Z"/><path class="cls-3" d="M0,670.5h-.5v-564H0c92.28,0,179,29.32,244.29,82.56S345.5,313.17,345.5,388.51,309.55,534.68,244.26,587.94,92.25,670.5,0,670.5Zm.5-563v562c189.75-.22,344-126.18,344-281S190.22,107.74.47,107.53Z"/><circle class="cls-4" cx="1584.5" cy="286.5" r="161"/><circle class="cls-5" cx="1541.5" cy="257.5" r="161"/><circle class="cls-6" cx="569.01" cy="631.18" r="105.18"/><circle class="cls-5" cx="509.68" cy="649.82" r="105.18"/><line class="cls-7" x1="1391" y1="1076" x2="1921" y2="618"/><line class="cls-8" x1="1502" y1="1076" x2="1920" y2="715"/><line class="cls-9" x1="1605" y1="1076" x2="1920" y2="804.01"/><line class="cls-10" x1="1721" y1="1076" x2="1921" y2="904"/><line class="cls-11" x1="1832" y1="1076" x2="1918" y2="1002"/><ellipse class="cls-12" cx="234.6" cy="505.11" rx="182.91" ry="144.11" transform="translate(-322.04 486.93) rotate(-63.22)"/></g></svg>